<?xml version="1.0" encoding="UTF-8"?>
<svg id="Layer_1" xmlns="http://www.w3.org/2000/svg" version="1.1" viewBox="0 0 150 150">
  <!-- Generator: Adobe Illustrator 29.1.0, SVG Export Plug-In . SVG Version: 2.1.0 Build 142)  -->
  <defs>
    <style>
      .st0 {
        fill: #fff;
      }
    </style>
  </defs>
  <path class="st0" d="M32.99,67.8c10.53,0,19.1-8.57,19.1-19.1s-8.57-19.1-19.1-19.1-19.1,8.57-19.1,19.1,8.57,19.1,19.1,19.1ZM32.99,34.13c8.03,0,14.57,6.54,14.57,14.57s-6.54,14.57-14.57,14.57-14.57-6.54-14.57-14.57,6.54-14.57,14.57-14.57Z"/>
  <path class="st0" d="M83.83,130.59c-16.93-10.18-23.63-28.57-26.28-42.19-1.62-8.34-8.92-14.39-17.37-14.39h-14.53c-9.75,0-17.68,7.93-17.68,17.68v54.33c0,1.25,1.01,2.27,2.27,2.27s2.27-1.01,2.27-2.27v-54.33c0-7.25,5.9-13.15,13.15-13.15h14.53c6.28,0,11.72,4.51,12.92,10.72,2.82,14.53,10.03,34.17,28.39,45.22.8.48,1.37,1.31,1.52,2.21.08.46.11,1.34-.55,2.13-1.3,1.56-4.12,1.23-6.26.67-5.71-1.49-15.05-8.92-22.49-17.49-.13-.21-.28-.39-.46-.54-6.19-7.25-10.94-15.24-10.94-21.12,0-1.25-1.01-2.27-2.27-2.27s-2.27,1.01-2.27,2.27c0,6.85,5.06,15.69,11.74,23.65v22.04c0,1.25,1.01,2.27,2.27,2.27s2.27-1.01,2.27-2.27v-17.03c7.27,7.48,15.43,13.42,21.01,14.88,6.17,1.61,9.33-.28,10.88-2.15,1.33-1.59,1.89-3.7,1.54-5.79-.38-2.23-1.71-4.18-3.66-5.35Z"/>
  <path class="st0" d="M110.24,77.04c0,7.73,6.29,14.02,14.02,14.02s14.02-6.29,14.02-14.02-6.29-14.02-14.02-14.02-14.02,6.29-14.02,14.02ZM124.26,67.59c5.21,0,9.46,4.24,9.46,9.46s-4.24,9.46-9.46,9.46-9.46-4.24-9.46-9.46,4.24-9.46,9.46-9.46Z"/>
  <path class="st0" d="M119.33,110.76c-1.26,0-2.28,1.02-2.28,2.28,0,8.01-13.79,22.48-21.5,26.02-1.14.53-1.65,1.88-1.12,3.03.37.81,1.19,1.33,2.07,1.33.33,0,.65-.07.95-.21,3.35-1.54,7.5-4.65,11.41-8.48v10.17c0,1.26,1.02,2.28,2.28,2.28s2.28-1.02,2.28-2.28v-15.11c4.66-5.6,8.18-11.84,8.18-16.75,0-1.26-1.02-2.28-2.28-2.28Z"/>
  <path class="st0" d="M129.37,93.99h-10.13c-6.23,0-11.61,4.46-12.8,10.6-1.51,7.77-5.12,18.57-13.76,25.91-.96.81-1.08,2.26-.26,3.22.43.51,1.07.8,1.74.8.54,0,1.06-.19,1.48-.54,9.65-8.2,13.64-20.03,15.28-28.52.78-4,4.28-6.91,8.32-6.91h10.13c4.67,0,8.47,3.8,8.47,8.47v37.88c0,1.26,1.02,2.28,2.28,2.28s2.28-1.02,2.28-2.28v-37.88c0-7.19-5.85-13.03-13.03-13.03Z"/>
  <path class="st0" d="M84.33,60.77c.08.04.17.06.26.09.06.02.11.05.17.06.19.05.38.08.56.08,0,0,0,0,0,0s0,0,0,0c.19,0,.38-.03.57-.08.06-.02.11-.04.17-.06.09-.03.17-.05.26-.09,1.28-.63,31.43-15.68,31.43-39.37,0-10.67-7.94-19.68-17.35-19.68-8.42,0-12.83,2.58-15.08,4.8-2.25-2.22-6.66-4.8-15.08-4.8-9.4,0-17.35,9.01-17.35,19.68,0,23.69,30.14,38.75,31.43,39.37ZM70.25,6.24c10.87,0,12.85,4.64,12.92,4.82.21.68.72,1.25,1.44,1.48,1.09.36,2.24-.14,2.72-1.14.02-.03.03-.06.04-.1.03-.06.06-.12.08-.19.08-.2,2.03-4.88,12.94-4.88,6.82,0,12.81,7.08,12.81,15.15,0,18.64-22.83,32.04-27.89,34.78-5.06-2.74-27.89-16.13-27.89-34.78,0-8.07,5.99-15.15,12.81-15.15Z"/>
</svg>