<?xml version="1.0" encoding="UTF-8"?>
<svg id="Layer_1" xmlns="http://www.w3.org/2000/svg" version="1.1" viewBox="0 0 150 150">
  <!-- Generator: Adobe Illustrator 29.1.0, SVG Export Plug-In . SVG Version: 2.1.0 Build 142)  -->
  <defs>
    <style>
      .st0 {
        fill: #fff;
      }
    </style>
  </defs>
  <path class="st0" d="M128.24,99.86c-9.56,0-17.35-7.78-17.35-17.35s7.78-17.35,17.35-17.35,17.35,7.78,17.35,17.35-7.78,17.35-17.35,17.35ZM128.24,69.45c-7.2,0-13.07,5.86-13.07,13.07s5.86,13.07,13.07,13.07,13.07-5.86,13.07-13.07-5.86-13.07-13.07-13.07Z"/>
  <path class="st0" d="M144.13,135.09c-1.18,0-2.14-.96-2.14-2.14v-21.12c0-6.6-5.37-11.96-11.96-11.96h-1.79c-10.04,0-13.75,8.02-16.74,14.47-1.92,4.14-3.43,7.41-6.58,7.41h-17.68c-2.5,0-4.53,2.03-4.53,4.53s2.03,4.53,4.53,4.53h20.47c1.18,0,2.29-.57,2.98-1.54l12.44-17.52c.69-.96,2.02-1.19,2.98-.51.96.68,1.19,2.02.51,2.98l-12.44,17.52c-1.48,2.09-3.9,3.34-6.47,3.34h-20.47c-4.86,0-8.81-3.95-8.81-8.81s3.95-8.81,8.81-8.81h17.6c.7-.43,1.9-3.02,2.79-4.93,3.13-6.75,7.86-16.95,20.63-16.95h1.79c8.96,0,16.25,7.29,16.25,16.25v21.12c0,1.18-.96,2.14-2.14,2.14Z"/>
  <path class="st0" d="M22.14,99.86c-9.56,0-17.35-7.78-17.35-17.35s7.78-17.35,17.35-17.35,17.35,7.78,17.35,17.35-7.78,17.35-17.35,17.35ZM22.14,69.45c-7.2,0-13.07,5.86-13.07,13.07s5.86,13.07,13.07,13.07,13.07-5.86,13.07-13.07-5.86-13.07-13.07-13.07Z"/>
  <path class="st0" d="M63.14,135.09h-20.47c-2.56,0-4.98-1.25-6.47-3.34l-12.44-17.52c-.68-.96-.46-2.3.51-2.98.96-.68,2.3-.46,2.98.51l12.44,17.52c.68.96,1.8,1.54,2.98,1.54h20.47c2.5,0,4.53-2.03,4.53-4.53s-2.03-4.53-4.53-4.53h-17.68c-3.15,0-4.66-3.27-6.58-7.41-2.99-6.45-6.71-14.47-16.74-14.47h-1.79c-6.6,0-11.96,5.37-11.96,11.96v21.12c0,1.18-.96,2.14-2.14,2.14s-2.14-.96-2.14-2.14v-21.12c0-8.96,7.29-16.25,16.25-16.25h1.79c12.77,0,17.5,10.2,20.63,16.95.88,1.91,2.09,4.5,2.79,4.93h17.6c4.86,0,8.81,3.95,8.81,8.81s-3.95,8.81-8.81,8.81Z"/>
  <path class="st0" d="M43.19,78.33c-.53,0-1.06-.2-1.46-.58-.62-.58-.84-1.48-.56-2.28l6.46-18.22c-3.5-4.4-5.34-9.49-5.34-14.82,0-14.89,14.67-27.01,32.7-27.01s32.69,12.12,32.69,27.01-14.67,27.02-32.69,27.02c-2.94,0-5.87-.33-8.72-.97l-22.22,9.67c-.27.12-.56.18-.85.18ZM74.98,19.71c-15.67,0-28.41,10.2-28.41,22.73,0,4.67,1.76,9.16,5.1,12.98.51.58.66,1.39.41,2.12l-5.22,14.72,18.36-7.98c.43-.19.91-.23,1.36-.12,2.74.67,5.57,1.02,8.41,1.02,15.67,0,28.41-10.2,28.41-22.74s-12.75-22.73-28.41-22.73Z"/>
</svg>