<?xml version="1.0" encoding="UTF-8"?>
<svg id="Layer_1" xmlns="http://www.w3.org/2000/svg" version="1.1" viewBox="0 0 150 150">
  <!-- Generator: Adobe Illustrator 29.1.0, SVG Export Plug-In . SVG Version: 2.1.0 Build 142)  -->
  <defs>
    <style>
      .st0 {
        fill: #fff;
      }
    </style>
  </defs>
  <path class="st0" d="M70.74,85.02c-5.12,0-9.28-4.17-9.28-9.28s4.17-9.28,9.28-9.28,9.28,4.17,9.28,9.28-4.17,9.28-9.28,9.28ZM70.74,69.41c-3.49,0-6.32,2.84-6.32,6.32s2.84,6.32,6.32,6.32,6.32-2.84,6.32-6.32-2.84-6.32-6.32-6.32Z"/>
  <path class="st0" d="M61.14,136.06c-.82,0-1.48-.66-1.48-1.48v-35.06c0-.55-.22-1.08-.61-1.47l-9.8-9.7c-.58-.58-.59-1.51-.01-2.09.58-.58,1.51-.59,2.09,0l9.79,9.7c.95.93,1.49,2.23,1.49,3.57v35.06c0,.82-.66,1.48-1.48,1.48Z"/>
  <path class="st0" d="M80.34,136.06c-.82,0-1.48-.66-1.48-1.48v-35.06c0-1.34.55-2.64,1.5-3.58.1-.1.22-.19.35-.25l7.32-3.85c.72-.38,1.62-.1,2,.62.38.72.1,1.62-.62,2l-7.1,3.73c-.31.37-.48.84-.48,1.33v35.06c0,.82-.66,1.48-1.48,1.48Z"/>
  <path class="st0" d="M72.29,90.42h-3.11c-2.64,0-5.21-.94-7.23-2.64l-6.94-5.85c-.62-.53-.7-1.46-.18-2.09.53-.62,1.46-.7,2.09-.18l6.94,5.85c1.49,1.25,3.37,1.94,5.32,1.94h3.11c.26-.02,2.27-.38,14.08-5.68.75-.33,1.62,0,1.96.74.33.75,0,1.62-.74,1.96-13.23,5.94-14.68,5.94-15.29,5.94Z"/>
  <path class="st0" d="M70.74,136.06c-.82,0-1.48-.66-1.48-1.48v-17.49c0-.82.66-1.48,1.48-1.48s1.48.66,1.48,1.48v17.49c0,.82-.66,1.48-1.48,1.48Z"/>
  <g>
    <path class="st0" d="M135.57,93.76c-.82,0-1.48-.66-1.48-1.48s.66-1.48,1.48-1.48c1.92,0,3.49-1.4,3.49-3.12v-32.57c0-4.37-3.89-7.93-8.68-7.93h-28.12c-4.79,0-8.68,3.56-8.68,7.93v32.57c0,1.72,1.57,3.12,3.49,3.12.82,0,1.48.66,1.48,1.48s-.66,1.48-1.48,1.48c-3.56,0-6.45-2.73-6.45-6.09v-32.57c0-6,5.22-10.89,11.64-10.89h28.12c6.42,0,11.64,4.89,11.64,10.89v32.57c0,3.36-2.89,6.09-6.45,6.09Z"/>
    <path class="st0" d="M131.51,136.06c-.82,0-1.48-.66-1.48-1.48v-65.65c0-.82.66-1.48,1.48-1.48s1.48.66,1.48,1.48v65.65c0,.82-.66,1.48-1.48,1.48Z"/>
    <path class="st0" d="M115.87,136.06h-.02c-.82,0-1.47-.68-1.46-1.5l.45-38.07c0-.81.67-1.46,1.48-1.46h.02c.82,0,1.47.68,1.46,1.5l-.45,38.07c0,.81-.67,1.46-1.48,1.46Z"/>
    <path class="st0" d="M101.12,136.06c-.82,0-1.48-.66-1.48-1.48v-65.65c0-.82.66-1.48,1.48-1.48s1.48.66,1.48,1.48v65.65c0,.82-.66,1.48-1.48,1.48Z"/>
    <path class="st0" d="M116.32,43.24c-7.7,0-13.97-6.27-13.97-13.97s6.27-13.97,13.97-13.97,13.97,6.27,13.97,13.97-6.27,13.97-13.97,13.97ZM116.32,18.27c-6.07,0-11.01,4.94-11.01,11.01s4.94,11.01,11.01,11.01,11.01-4.94,11.01-11.01-4.94-11.01-11.01-11.01Z"/>
  </g>
  <g>
    <path class="st0" d="M11.62,83.61c-.47,0-.93-.22-1.22-.63l-2.5-3.6s-.05-.07-.07-.11c-.97-1.68-1.27-3.64-.85-5.53l5.65-25.48c1.15-5.19,5.67-8.82,10.98-8.82h13.01c5.09,0,9.56,3.44,10.87,8.36l6.87,25.86c.6,2.26.16,4.64-1.22,6.53-.02.03-.05.06-.07.09l-2.39,2.8c-.53.62-1.47.7-2.09.17-.62-.53-.7-1.46-.17-2.09l2.35-2.76c.82-1.16,1.09-2.61.72-3.98l-6.87-25.86c-.96-3.63-4.26-6.16-8.01-6.16h-13.01c-3.92,0-7.24,2.67-8.09,6.5l-5.65,25.48c-.25,1.15-.08,2.34.5,3.36l2.46,3.54c.47.67.3,1.59-.37,2.06-.26.18-.55.27-.84.27Z"/>
    <path class="st0" d="M48.37,97.54H12.2c-.44,0-.87-.2-1.15-.54-.28-.35-.39-.8-.3-1.23l8.42-40.84c.17-.8.95-1.31,1.75-1.15.8.17,1.32.95,1.15,1.75l-8.05,39.06h32.54l-8.05-39.06c-.16-.8.35-1.58,1.15-1.75.8-.16,1.58.35,1.75,1.15l8.42,40.84c.09.44-.02.89-.3,1.23-.28.34-.7.54-1.15.54Z"/>
    <path class="st0" d="M29.99,38.68c-6.82,0-12.37-5.55-12.37-12.37s5.55-12.37,12.37-12.37,12.37,5.55,12.37,12.37-5.55,12.37-12.37,12.37ZM29.99,16.9c-5.19,0-9.41,4.22-9.41,9.41s4.22,9.41,9.41,9.41,9.41-4.22,9.41-9.41-4.22-9.41-9.41-9.41Z"/>
    <path class="st0" d="M19.05,136.07c-.77,0-1.43-.6-1.48-1.39l-2.42-37.9c-.05-.82.57-1.52,1.38-1.57.8-.05,1.52.57,1.57,1.38l2.42,37.9c.05.82-.57,1.52-1.38,1.57-.03,0-.06,0-.1,0Z"/>
    <path class="st0" d="M29.71,135.79c-.82,0-1.48-.66-1.48-1.48v-37.62c0-.82.66-1.48,1.48-1.48s1.48.66,1.48,1.48v37.62c0,.82-.66,1.48-1.48,1.48Z"/>
    <path class="st0" d="M40.37,136.07s-.06,0-.1,0c-.82-.05-1.44-.76-1.38-1.57l2.42-37.9c.05-.82.75-1.43,1.57-1.38.82.05,1.44.76,1.38,1.57l-2.42,37.9c-.05.78-.7,1.39-1.48,1.39Z"/>
    <path class="st0" d="M29.71,135.79c-.82,0-1.48-.66-1.48-1.48v-37.62c0-.82.66-1.48,1.48-1.48s1.48.66,1.48,1.48v37.62c0,.82-.66,1.48-1.48,1.48Z"/>
  </g>
  <g>
    <g>
      <path class="st0" d="M70.74,85.27c5.26,0,9.53-4.28,9.53-9.53s-4.28-9.53-9.53-9.53-9.53,4.28-9.53,9.53,4.28,9.53,9.53,9.53ZM70.74,69.66c3.35,0,6.07,2.72,6.07,6.07s-2.72,6.07-6.07,6.07-6.07-2.72-6.07-6.07,2.72-6.07,6.07-6.07Z"/>
      <path class="st0" d="M54.25,80.95c.04.46.25.88.61,1.18l6.94,5.85c2.06,1.74,4.69,2.7,7.39,2.7h3.11c.69,0,2.12,0,15.4-5.96.87-.39,1.26-1.42.87-2.29-.28-.62-.9-1.02-1.58-1.02-.24,0-.48.05-.71.15-12,5.39-13.83,5.65-13.98,5.66h-3.11c-1.88,0-3.72-.67-5.16-1.89l-6.94-5.85c-.31-.26-.71-.41-1.11-.41-.51,0-.99.22-1.32.61-.3.35-.44.8-.4,1.26Z"/>
      <path class="st0" d="M97.07,94.01c.95,0,1.73-.78,1.73-1.73s-.78-1.73-1.73-1.73c-1.79,0-3.24-1.29-3.24-2.88v-32.57c0-4.23,3.78-7.68,8.43-7.68h28.12c4.65,0,8.43,3.44,8.43,7.68v32.57c0,1.58-1.45,2.88-3.24,2.88-.95,0-1.73.78-1.73,1.73s.78,1.73,1.73,1.73c3.7,0,6.7-2.84,6.7-6.34v-32.57c0-6.14-5.33-11.14-11.89-11.14h-28.12c-6.56,0-11.89,5-11.89,11.14v32.57c0,3.49,3.01,6.34,6.7,6.34Z"/>
      <path class="st0" d="M116.32,43.49c7.84,0,14.22-6.38,14.22-14.22s-6.38-14.22-14.22-14.22-14.22,6.38-14.22,14.22,6.38,14.22,14.22,14.22ZM116.32,18.52c5.93,0,10.76,4.83,10.76,10.76s-4.83,10.76-10.76,10.76-10.76-4.83-10.76-10.76,4.83-10.76,10.76-10.76Z"/>
      <path class="st0" d="M29.99,38.93c6.96,0,12.62-5.66,12.62-12.62s-5.66-12.62-12.62-12.62-12.62,5.66-12.62,12.62,5.66,12.62,12.62,12.62ZM29.99,17.15c5.05,0,9.16,4.11,9.16,9.16s-4.11,9.16-9.16,9.16-9.16-4.11-9.16-9.16,4.11-9.16,9.16-9.16Z"/>
      <path class="st0" d="M144.93,132.85h-11.69v-63.93c0-.95-.78-1.73-1.73-1.73s-1.73.78-1.73,1.73v63.93h-12.16l.43-36.32c0-.46-.17-.9-.49-1.23s-.76-.52-1.24-.52c-.94,0-1.72.77-1.73,1.71l-.43,36.36h-11.3v-63.93c0-.95-.78-1.73-1.73-1.73s-1.73.78-1.73,1.73v63.93h-17.32v-33.33c0-.43.15-.84.35-1.11l7.1-3.73c.84-.44,1.17-1.49.73-2.34-.3-.57-.89-.92-1.53-.92-.28,0-.56.07-.8.2l-7.32,3.85c-.15.08-.28.18-.41.3-1,.98-1.57,2.35-1.57,3.76v33.33h-6.14v-15.76c0-.95-.78-1.73-1.73-1.73s-1.73.78-1.73,1.73v15.76h-6.14v-33.33c0-1.41-.57-2.77-1.57-3.75l-9.79-9.7c-.33-.32-.76-.5-1.22-.5s-.9.18-1.23.51c-.33.33-.5.76-.5,1.23,0,.46.18.9.51,1.22l9.8,9.7c.34.33.54.8.54,1.29v33.33h-17.19l2.24-35.07h3.92c.52,0,1.01-.23,1.34-.64.33-.41.46-.93.35-1.44l-8.42-40.84c-.16-.8-.88-1.38-1.7-1.38-.11,0-.23.01-.35.03-.93.19-1.54,1.11-1.35,2.04l7.99,38.76H14.32l7.99-38.76c.19-.93-.41-1.85-1.35-2.04-.12-.02-.23-.03-.35-.03-.82,0-1.53.58-1.7,1.38l-5.59,27.12c-.03-.3-.12-.59-.3-.84l-2.45-3.52c-.54-.97-.71-2.1-.47-3.19l5.65-25.48c.82-3.71,4.05-6.3,7.85-6.3h13.01c3.64,0,6.83,2.46,7.77,5.97l6.87,25.86c.35,1.3.1,2.68-.67,3.76l-2.35,2.76c-.3.35-.44.8-.41,1.26s.25.88.6,1.18c.31.27.71.41,1.12.41.51,0,.99-.22,1.32-.61l2.39-2.81.08-.1c1.42-1.95,1.88-4.41,1.26-6.74l-6.87-25.86c-1.34-5.03-5.91-8.55-11.11-8.55h-13.01c-5.43,0-10.05,3.71-11.23,9.01l-5.65,25.48c-.43,1.95-.12,3.98.88,5.71.02.04.05.08.08.12l2.5,3.6c.32.46.85.74,1.42.74.35,0,.7-.11.99-.31.23-.16.4-.37.53-.61l-2.63,12.76c-.11.51.02,1.04.35,1.44.33.4.82.64,1.34.64h2.77l2.24,35.07H5.07c-.95,0-1.73.78-1.73,1.73s.78,1.73,1.73,1.73h139.86c.95,0,1.73-.78,1.73-1.73s-.78-1.73-1.73-1.73ZM38.75,132.85h-7.31v-35.07h9.55l-2.24,35.07ZM18.43,97.79h9.55v35.07h-7.31l-2.24-35.07Z"/>
    </g>
    <path class="st0" d="M144.93,136.07H5.07c-.82,0-1.48-.66-1.48-1.48s.66-1.48,1.48-1.48h139.86c.82,0,1.48.66,1.48,1.48s-.66,1.48-1.48,1.48Z"/>
  </g>
</svg>