<?xml version="1.0" encoding="UTF-8"?>
<svg id="Layer_1" xmlns="http://www.w3.org/2000/svg" version="1.1" viewBox="0 0 150 150">
  <!-- Generator: Adobe Illustrator 29.1.0, SVG Export Plug-In . SVG Version: 2.1.0 Build 142)  -->
  <defs>
    <style>
      .st0 {
        fill: #fff;
      }
    </style>
  </defs>
  <g>
    <path class="st0" d="M32.07,126.02c-2.95,0-5.62-1.51-7.14-4.05-1.51-2.53-1.58-5.6-.19-8.2l19.98-37.17c3.64-7.64,11.49-12.58,20.01-12.58h2.64c.4,0,.73-.28.8-.68l.98-5.58c.14-.82.85-1.41,1.68-1.41.1,0,.2,0,.3.03.45.08.84.33,1.1.7.26.37.36.82.28,1.27l-.98,5.58c-.36,2.02-2.1,3.49-4.16,3.49h-2.64c-7.21,0-13.87,4.21-16.97,10.71l-20.01,37.25c-.83,1.53-.78,3.34.11,4.84.9,1.5,2.47,2.39,4.22,2.39h32.92c1.64,0,3.19-.64,4.35-1.8,1.19-1.18,1.83-2.76,1.8-4.44-.04-3.35-2.9-6.07-6.36-6.07h-18.01c-.59,0-1.13-.3-1.44-.79s-.35-1.11-.1-1.64l8.92-18.74c.28-.59.88-.97,1.54-.97.25,0,.5.06.73.17.41.2.72.54.87.97.15.43.13.89-.07,1.3l-7.76,16.3h15.32c5.31,0,9.69,4.23,9.76,9.43.03,2.61-.96,5.05-2.8,6.89-1.81,1.8-4.21,2.8-6.76,2.8h-32.92Z"/>
    <path class="st0" d="M64.99,125.77h-32.92c-2.87,0-5.45-1.47-6.92-3.93-1.47-2.46-1.54-5.43-.18-7.95l19.97-37.17c3.59-7.54,11.37-12.45,19.79-12.45h2.64c.52,0,.96-.37,1.05-.88l.98-5.58c.14-.79.89-1.32,1.68-1.18.79.14,1.32.89,1.18,1.68l-.98,5.58c-.33,1.9-1.98,3.28-3.91,3.28h-2.64c-7.3,0-14.05,4.26-17.2,10.86l-20.01,37.23c-.87,1.61-.82,3.51.12,5.09.94,1.57,2.6,2.52,4.43,2.52h32.92c1.71,0,3.32-.67,4.53-1.88,1.23-1.23,1.9-2.87,1.88-4.62-.05-3.48-3.01-6.32-6.61-6.32h-18.01c-.5,0-.96-.26-1.23-.68-.27-.42-.3-.95-.08-1.4l8.92-18.74c.34-.72,1.21-1.03,1.94-.69.72.35,1.03,1.21.69,1.94l-7.93,16.66h15.71c5.18,0,9.44,4.12,9.51,9.18.03,2.54-.94,4.92-2.73,6.71-1.76,1.76-4.1,2.73-6.58,2.73Z"/>
  </g>
  <g>
    <path class="st0" d="M91.48,133.08c-.94,0-1.7-.76-1.71-1.7,0-.46.18-.88.5-1.21.32-.32.75-.5,1.2-.5,7.49-.01,14.44-3.42,19.04-9.34l9.65-12.44c3.25-4.19,3.57-10.05.79-14.57l-11.03-17.96s-.05-.08-.07-.12c-2.45-4.83-7.34-7.83-12.75-7.83h-6.77c-2.09,0-3.88-1.56-4.18-3.62l-.75-5.27c-.06-.45.05-.9.32-1.26.27-.36.67-.6,1.12-.66.08-.01.16-.02.24-.02.84,0,1.56.63,1.68,1.46l.75,5.27c.06.4.4.7.81.7h6.77c6.67,0,12.71,3.69,15.76,9.63l10.99,17.89c3.52,5.72,3.11,13.14-1.01,18.44l-9.65,12.44c-5.26,6.76-13.18,10.65-21.73,10.66h0Z"/>
    <path class="st0" d="M91.48,132.83c-.8,0-1.45-.65-1.45-1.45s.65-1.45,1.45-1.45c7.57-.01,14.59-3.45,19.24-9.44l9.65-12.44c3.32-4.27,3.64-10.24.81-14.86l-11.03-17.96s-.04-.07-.06-.1c-2.5-4.91-7.47-7.96-12.97-7.96h-6.77c-1.96,0-3.66-1.46-3.94-3.41l-.75-5.27c-.11-.79.44-1.53,1.23-1.64.78-.12,1.53.44,1.64,1.23l.75,5.26c.08.53.52.91,1.06.91h6.77c6.58,0,12.53,3.64,15.54,9.5l11,17.91c3.46,5.64,3.06,12.93-.99,18.16l-9.65,12.44c-5.21,6.7-13.06,10.55-21.53,10.56h0Z"/>
  </g>
  <g>
    <g>
      <path class="st0" d="M53.24,63.35c-.4,0-.8-.14-1.1-.41-.71-.61-.8-1.69-.19-2.4,1.46-1.71,1.96-3.93,1.39-6.09l-2.58-9.78c-3.35-10.01-1.48-21.03,5.01-29.46,6.08-7.9,15.29-12.43,25.27-12.43.68,0,1.36.02,2.05.07,5.42.47,10.26,3.3,13.28,7.77,11.08,8.78,16.04,23.39,12.58,37.17l-2.74,10.92c-.19.76-.87,1.29-1.65,1.29-.14,0-.28-.02-.41-.05-.91-.23-1.47-1.16-1.24-2.07l2.74-10.92c3.16-12.58-1.4-25.87-11.61-33.86-.15-.11-.27-.25-.37-.41-2.44-3.71-6.38-6.06-10.8-6.44-.62-.04-1.24-.06-1.86-.06-8.87,0-17.08,4.05-22.52,11.11-5.8,7.53-7.46,17.4-4.45,26.41l2.62,9.89c.85,3.21.07,6.64-2.09,9.17-.32.38-.8.6-1.3.6Z"/>
      <path class="st0" d="M53.24,63.1c-.33,0-.67-.11-.94-.35-.61-.52-.68-1.44-.16-2.05,1.51-1.77,2.03-4.07,1.44-6.32l-2.58-9.78c-3.32-9.92-1.47-20.88,4.97-29.24,6.44-8.36,16.58-12.94,27.1-12.27,5.37.46,10.1,3.25,13.09,7.66,11.06,8.78,15.99,23.26,12.54,36.97l-2.74,10.92c-.19.78-.99,1.25-1.76,1.05-.78-.2-1.25-.98-1.06-1.76l2.74-10.92c3.18-12.67-1.41-26.07-11.7-34.12-.12-.1-.23-.21-.32-.35-2.48-3.78-6.49-6.17-10.99-6.56-9.56-.63-18.75,3.55-24.6,11.14-5.85,7.59-7.53,17.55-4.49,26.64l2.61,9.87c.83,3.13.06,6.48-2.04,8.95-.29.34-.7.51-1.11.51Z"/>
    </g>
    <g>
      <path class="st0" d="M79.21,62.04c-10.31,0-18.84-8.7-19.42-19.8-.06-1.06.23-2.11.81-2.97,1.42-2.13,2.06-4.75,1.8-7.38l-.43-4.26c-.05-.51.13-1.02.5-1.38.32-.32.75-.49,1.2-.49.06,0,.12,0,.18,0,.78.09,1.58.14,2.37.17.31,0,.61.01.92.01,6.17,0,12.2-1.86,17.44-5.39l3.66-2.46c.28-.19.61-.29.95-.29.25,0,.51.06.73.17.54.26.91.79.96,1.39.38,4.48,2.52,8.53,5.87,11.12l1.26.98c.41.32.66.82.66,1.35v7.91c0,11.56-8.58,21.13-19.12,21.32h-.34ZM65.79,31.55c.34,3.41-.5,6.82-2.36,9.61-.17.26-.26.58-.24.9.49,9.29,7.53,16.58,16.04,16.58h.25c8.7-.16,15.78-8.2,15.78-17.92v-7.08l-.6-.47c-3.37-2.61-5.76-6.42-6.75-10.76l-1.44.97c-5.8,3.9-12.46,5.97-19.27,5.97-.37,0-.73,0-1.1-.02-.18,0-.36-.01-.55-.02l.22,2.24Z"/>
      <path class="st0" d="M79.21,61.79c-10.21,0-18.6-8.53-19.17-19.57-.05-1,.22-2,.77-2.82,1.46-2.18,2.11-4.86,1.84-7.54l-.43-4.26c-.04-.44.11-.87.42-1.18.31-.31.74-.46,1.18-.41.79.09,1.59.14,2.38.17h0c6.52.19,12.94-1.67,18.5-5.42l3.66-2.46c.43-.29.97-.33,1.44-.11.46.22.78.67.82,1.19.39,4.54,2.57,8.66,5.97,11.3l1.26.98c.35.28.56.7.56,1.15v7.91c0,11.43-8.47,20.88-18.88,21.07-.11,0-.22,0-.33,0ZM65.29,29.05l.25,2.53c.34,3.35-.49,6.71-2.32,9.44-.2.3-.3.68-.28,1.05.5,9.59,7.73,16.96,16.55,16.81,8.84-.16,16.02-8.31,16.02-18.16v-7.2l-.7-.54c-3.44-2.66-5.82-6.58-6.74-10.98l-1.74,1.17c-6.08,4.09-13.08,6.14-20.22,5.91h0c-.28,0-.56-.02-.83-.04Z"/>
    </g>
  </g>
  <g>
    <path class="st0" d="M95.05,115.88c-1.13,0-2.27-.13-3.4-.38-3.99-.9-7.39-3.3-9.58-6.76s-2.9-7.57-2-11.56c.9-3.99,3.3-7.4,6.76-9.59,2.46-1.56,5.28-2.38,8.16-2.38,1.13,0,2.28.13,3.4.38,3.99.9,7.4,3.3,9.59,6.76,2.19,3.46,2.9,7.57,2,11.56-.9,3.99-3.3,7.4-6.76,9.59-2.46,1.56-5.28,2.38-8.16,2.38ZM95.02,88.63c-5.52,0-10.42,3.91-11.63,9.3-1.44,6.41,2.6,12.81,9.01,14.25.87.2,1.76.3,2.64.3,2.24,0,4.43-.64,6.35-1.85,2.69-1.7,4.56-4.35,5.26-7.46.7-3.11.15-6.3-1.55-8.99-1.7-2.69-4.35-4.56-7.46-5.26-.86-.19-1.75-.29-2.62-.29Z"/>
    <path class="st0" d="M95.05,115.63c-1.11,0-2.23-.12-3.34-.37-8.11-1.83-13.22-9.91-11.4-18.02.88-3.93,3.25-7.28,6.65-9.43,3.4-2.15,7.44-2.85,11.37-1.97,3.93.88,7.28,3.25,9.43,6.65s2.85,7.44,1.97,11.37c-.88,3.93-3.25,7.28-6.65,9.43-2.44,1.54-5.21,2.34-8.03,2.34ZM95.02,88.38c-5.56,0-10.6,3.85-11.87,9.5-1.47,6.55,2.65,13.08,9.2,14.55,3.17.71,6.43.15,9.18-1.59s4.65-4.44,5.37-7.61h0c.72-3.17.15-6.43-1.59-9.18-1.74-2.75-4.44-4.65-7.61-5.37-.9-.2-1.79-.3-2.68-.3Z"/>
  </g>
  <g>
    <path class="st0" d="M69.72,105.31c-.52,0-1-.23-1.32-.63-.59-.73-.48-1.8.25-2.4l2.99-2.43c2.86-2.32,6.3-3.64,9.97-3.82h0c1,0,1.74.71,1.78,1.62.02.45-.13.89-.44,1.23-.3.34-.72.53-1.18.56-2.94.15-5.7,1.21-7.99,3.07l-2.99,2.43c-.3.25-.68.38-1.07.38Z"/>
    <path class="st0" d="M69.72,105.06c-.42,0-.84-.18-1.13-.54-.51-.62-.41-1.54.21-2.04l2.99-2.43c2.81-2.29,6.21-3.59,9.83-3.77.82-.04,1.48.58,1.52,1.38.04.8-.58,1.48-1.38,1.52-2.99.15-5.81,1.23-8.14,3.12l-2.99,2.43c-.27.22-.59.33-.92.33Z"/>
  </g>
  <g>
    <path class="st0" d="M61.76,147.22c-5.21,0-10.07-2.31-13.35-6.34-1.73-2.13-2.94-4.66-3.49-7.33-.09-.45,0-.9.24-1.28.25-.38.63-.64,1.08-.73.11-.02.23-.04.35-.04.8,0,1.5.57,1.66,1.36.45,2.17,1.39,4.14,2.8,5.88,2.62,3.23,6.53,5.08,10.7,5.08,3.15,0,6.23-1.09,8.68-3.08l20.74-16.86c2.42-1.97,4.06-4.61,4.75-7.65.18-.81.29-1.63.32-2.44.04-.93.76-1.63,1.68-1.63,1.03.04,1.76.84,1.72,1.77-.04,1.02-.18,2.04-.4,3.05-.85,3.79-2.9,7.09-5.92,9.54l-20.74,16.86c-3.05,2.48-6.89,3.84-10.82,3.84Z"/>
    <path class="st0" d="M61.76,146.97c-4.93,0-9.81-2.13-13.15-6.24-1.7-2.1-2.9-4.59-3.44-7.22-.16-.79.34-1.56,1.13-1.72.78-.17,1.55.34,1.72,1.13.46,2.21,1.42,4.22,2.85,5.98,4.88,6,13.73,6.92,19.73,2.04l20.74-16.86c2.47-2,4.14-4.7,4.83-7.79.18-.82.29-1.65.33-2.48.03-.8.67-1.43,1.51-1.39.8.03,1.42.71,1.39,1.51-.04,1.01-.17,2.01-.4,3-.84,3.73-2.86,6.98-5.84,9.4l-20.74,16.86c-3.13,2.55-6.91,3.78-10.66,3.78Z"/>
  </g>
  <g>
    <path class="st0" d="M73.2,93.05c-.51,0-.99-.23-1.32-.62l-1.8-2.2c-4.56-5.56-7.29-12.28-7.88-19.45l-.4-4.88c-.04-.45.1-.89.4-1.24.29-.35.71-.56,1.16-.6.05,0,.1,0,.15,0,.87,0,1.61.69,1.69,1.56l.4,4.88c.54,6.47,3,12.55,7.12,17.57l1.8,2.2c.29.35.42.79.38,1.25-.04.45-.26.86-.61,1.15-.3.25-.69.39-1.08.39Z"/>
    <path class="st0" d="M73.2,92.8c-.42,0-.84-.18-1.12-.53l-1.8-2.2c-4.53-5.52-7.24-12.19-7.82-19.31l-.4-4.88c-.07-.8.53-1.5,1.33-1.57.8-.07,1.5.53,1.57,1.33l.4,4.88c.54,6.52,3.02,12.64,7.17,17.7l1.8,2.2c.51.62.42,1.54-.2,2.04-.27.22-.6.33-.92.33Z"/>
  </g>
  <g>
    <path class="st0" d="M51.29,100.81c-.26,0-.51-.06-.74-.17l-13.17-6.38c-.41-.2-.72-.54-.87-.97s-.12-.89.08-1.3c.28-.58.88-.96,1.53-.96.26,0,.51.06.74.17l13.17,6.38c.41.2.72.54.87.97.15.43.12.89-.08,1.3-.28.58-.88.96-1.53.96Z"/>
    <path class="st0" d="M51.3,100.56c-.21,0-.43-.05-.63-.15l-13.17-6.38c-.72-.35-1.02-1.22-.67-1.94.35-.72,1.22-1.03,1.94-.67l13.17,6.38c.72.35,1.02,1.22.67,1.94-.25.52-.77.82-1.31.82Z"/>
  </g>
</svg>