<?xml version="1.0" encoding="UTF-8"?>
<svg id="Layer_1" xmlns="http://www.w3.org/2000/svg" version="1.1" viewBox="0 0 150 150">
  <!-- Generator: Adobe Illustrator 29.1.0, SVG Export Plug-In . SVG Version: 2.1.0 Build 142)  -->
  <defs>
    <style>
      .st0 {
        fill: #fff;
      }
    </style>
  </defs>
  <path class="st0" d="M61.18,65.06c-.11,0-.21-.01-.32-.03-.46-.1-.84-.4-1.04-.83l-2.76-5.82h-3.67c-2.79,0-5.06-2.27-5.06-5.06v-21.86c0-2.79,2.27-5.06,5.06-5.06h35.97c2.79,0,5.06,2.27,5.06,5.06v21.86c0,2.79-2.27,5.06-5.06,5.06h-19.68l-7.51,6.32c-.28.23-.62.35-.97.35ZM53.37,29.43c-1.12,0-2.04.91-2.04,2.04v21.86c0,1.12.91,2.04,2.04,2.04h4.63c.58,0,1.11.34,1.36.86l2.33,4.91,6.43-5.42c.27-.23.62-.35.97-.35h20.23c1.12,0,2.04-.91,2.04-2.04v-21.86c0-1.12-.91-2.04-2.04-2.04h-35.97Z"/>
  <path class="st0" d="M81.2,91.05c-6.42,0-11.65-5.23-11.65-11.65s5.23-11.65,11.65-11.65,11.65,5.23,11.65,11.65-5.23,11.65-11.65,11.65ZM81.2,70.77c-4.76,0-8.63,3.87-8.63,8.63s3.87,8.63,8.63,8.63,8.63-3.87,8.63-8.63-3.87-8.63-8.63-8.63Z"/>
  <path class="st0" d="M30.13,64.39c-6.42,0-11.65-5.23-11.65-11.65s5.23-11.65,11.65-11.65,11.65,5.23,11.65,11.65-5.23,11.65-11.65,11.65ZM30.13,44.11c-4.76,0-8.63,3.87-8.63,8.63s3.87,8.63,8.63,8.63,8.63-3.87,8.63-8.63-3.87-8.63-8.63-8.63Z"/>
  <path class="st0" d="M98.98,123.59c-.83,0-1.51-.68-1.51-1.51v-13.58c0-5-4.07-9.07-9.07-9.07h-16.4c-5,0-9.07,4.07-9.07,9.07v13.58c0,.83-.68,1.51-1.51,1.51s-1.51-.68-1.51-1.51v-13.58c0-6.66,5.42-12.09,12.09-12.09h16.4c6.66,0,12.09,5.42,12.09,12.09v13.58c0,.83-.68,1.51-1.51,1.51Z"/>
  <path class="st0" d="M126.71,91.05c-6.42,0-11.65-5.23-11.65-11.65s5.23-11.65,11.65-11.65,11.65,5.23,11.65,11.65-5.23,11.65-11.65,11.65ZM126.71,70.77c-4.76,0-8.63,3.87-8.63,8.63s3.87,8.63,8.63,8.63,8.63-3.87,8.63-8.63-3.87-8.63-8.63-8.63Z"/>
  <path class="st0" d="M144.48,123.59c-.83,0-1.51-.68-1.51-1.51v-13.58c0-5-4.07-9.07-9.07-9.07h-16.4c-5,0-9.07,4.07-9.07,9.07v13.58c0,.83-.68,1.51-1.51,1.51s-1.51-.68-1.51-1.51v-13.58c0-6.66,5.42-12.09,12.09-12.09h16.4c6.66,0,12.09,5.42,12.09,12.09v13.58c0,.83-.68,1.51-1.51,1.51Z"/>
  <path class="st0" d="M25.13,103.69h-14.6c-3.59,0-6.52-2.92-6.52-6.52v-17.13c0-6.78,5.52-12.3,12.3-12.3h8.07c.83,0,1.51.68,1.51,1.51s-.68,1.51-1.51,1.51h-8.07c-5.11,0-9.28,4.16-9.28,9.28v17.13c0,1.93,1.57,3.5,3.5,3.5h14.6c1.93,0,3.5-1.57,3.5-3.5v-5.33h-13.01c-.83,0-1.51-.68-1.51-1.51v-5.17c0-.83.68-1.51,1.51-1.51s1.51.68,1.51,1.51v3.66h13.01c.83,0,1.51.68,1.51,1.51v6.84c0,3.59-2.92,6.52-6.52,6.52Z"/>
  <path class="st0" d="M12.78,123.14c-.83,0-1.51-.68-1.51-1.51v-19.44c0-.83.68-1.51,1.51-1.51s1.51.68,1.51,1.51v19.44c0,.83-.68,1.51-1.51,1.51Z"/>
  <path class="st0" d="M46.07,104.44h-10.76c-.83,0-1.51-.68-1.51-1.51s.68-1.51,1.51-1.51h9.74l10.67-27.13c.17-.43.12-.9-.14-1.28-.26-.38-.68-.6-1.14-.6h-20.73l-5.77,12.72c-.34.76-1.24,1.1-2,.75-.76-.34-1.1-1.24-.75-2l6.17-13.6c.24-.54.78-.89,1.37-.89h21.71c1.46,0,2.82.72,3.64,1.92.82,1.2.99,2.73.46,4.09l-11.05,28.09c-.23.58-.78.96-1.41.96Z"/>
  <path class="st0" d="M43.4,123.14c-.83,0-1.51-.68-1.51-1.51v-12.93c0-.83.68-1.51,1.51-1.51s1.51.68,1.51,1.51v12.93c0,.83-.68,1.51-1.51,1.51Z"/>
</svg>