<?xml version="1.0" encoding="UTF-8"?>
<svg id="Layer_1" xmlns="http://www.w3.org/2000/svg" version="1.1" viewBox="0 0 150 150">
  <!-- Generator: Adobe Illustrator 29.1.0, SVG Export Plug-In . SVG Version: 2.1.0 Build 142)  -->
  <defs>
    <style>
      .st0 {
        fill: #fff;
      }
    </style>
  </defs>
  <path class="st0" d="M24.72,96.25h-11.37c-3.58,0-6.49,2.91-6.49,6.49v33.43c0,3.58,2.91,6.49,6.49,6.49h11.37c3.58,0,6.49-2.91,6.49-6.49v-33.43c0-3.58-2.91-6.49-6.49-6.49ZM27.09,136.18c0,1.31-1.07,2.38-2.38,2.38h-11.37c-1.31,0-2.38-1.07-2.38-2.38v-33.43c0-1.31,1.07-2.38,2.38-2.38h11.37c1.31,0,2.38,1.07,2.38,2.38v33.43Z"/>
  <path class="st0" d="M141.47,104.93c-.81-.95-2.33-2.08-4.99-2.08-7.91,0-28.75,5.22-40.59,8.36.08-.39.12-.75.12-1.07,0-7.84-8.51-12.52-22.75-12.52-8.86,0-26.89,2.19-34.52,4.65-1.08.35-1.68,1.51-1.33,2.59.35,1.08,1.51,1.67,2.59,1.33,6.57-2.12,23.98-4.45,33.25-4.45,3.11,0,18.64.41,18.64,8.4,0,.42-.29.89-.86,1.39-.84.74-2.09,1.4-3.6,1.99,0,0-.03,0-.04.01-.12.03-.24.08-.35.14-8.83,3.27-26.2,4.27-30.12,3.76-1.13-.14-2.16.65-2.31,1.77-.15,1.13.65,2.16,1.77,2.31.62.08,1.75.13,3.24.13,6.64,0,20.5-.95,28.99-4.18,2.16-.61,37.61-10.49,47.85-10.49,1.31,0,1.72.47,1.85.63.43.5,1.05,1.9.44,5.62-.07.44-1.27,4.54-20.76,11.93-11.14,4.22-23.89,7.85-30.72,9.25-12.87,2.64-40.45.85-46.84-3.04-.97-.59-2.24-.28-2.83.69-.59.97-.28,2.24.69,2.83,5.22,3.17,19.8,4.87,32.79,4.87,6.53,0,12.67-.43,17.01-1.32,6.54-1.34,52.9-13.48,54.72-24.54.68-4.14.23-7.07-1.36-8.95Z"/>
  <path class="st0" d="M71.44,88.11c.33.65.98,1.07,1.71,1.12.04,0,.08,0,.12,0,.68,0,1.33-.34,1.71-.92l11.22-16.82h26.3c4.21,0,7.63-3.42,7.63-7.63V14.97c0-4.21-3.42-7.64-7.63-7.64H37c-4.21,0-7.63,3.43-7.63,7.64v48.89c0,4.21,3.42,7.63,7.63,7.63h25.92l8.52,16.61ZM33.48,63.86V14.97c0-1.94,1.58-3.52,3.51-3.52h75.5c1.94,0,3.51,1.58,3.51,3.52v48.89c0,1.94-1.58,3.51-3.51,3.51h-27.4c-.69,0-1.33.34-1.71.92l-9.88,14.82-7.49-14.62c-.35-.69-1.06-1.12-1.83-1.12h-27.18c-1.94,0-3.51-1.58-3.51-3.51Z"/>
  <path class="st0" d="M66,58.1c0,1,.82,1.82,1.82,1.82h13.86c1,0,1.82-.82,1.82-1.82v-9h9c1,0,1.82-.82,1.82-1.82v-13.86c0-1-.82-1.82-1.82-1.82h-9v-9c0-1-.82-1.82-1.82-1.82h-13.86c-1,0-1.82.82-1.82,1.82v9h-9c-1,0-1.82.82-1.82,1.82v13.86c0,1,.82,1.82,1.82,1.82h9v9ZM69.64,33.43v-9h10.22v9c0,1,.82,1.82,1.82,1.82h9v10.22h-9c-1,0-1.82.82-1.82,1.82v9h-10.22v-9c0-1-.82-1.82-1.82-1.82h-9v-10.22h9c1,0,1.82-.82,1.82-1.82Z"/>
</svg>