<?xml version="1.0" encoding="UTF-8"?>
<svg id="Layer_1" xmlns="http://www.w3.org/2000/svg" version="1.1" viewBox="0 0 150 150">
  <!-- Generator: Adobe Illustrator 29.1.0, SVG Export Plug-In . SVG Version: 2.1.0 Build 142)  -->
  <defs>
    <style>
      .st0 {
        fill: #fff;
      }
    </style>
  </defs>
  <path class="st0" d="M108.2,148.66c-1.3,0-2.35-1.05-2.35-2.35v-37.81c0-.96.59-1.83,1.48-2.18,1.25-.5,30.68-12.68,30.68-45.75,0-22.39-8.79-38.36-26.13-47.46-12.52-6.57-25.14-7.03-26.25-7.06-22.2,1.44-37.84,10.77-46.48,27.73-6.53,12.81-6.45,25.44-6.45,25.57,0,.59-.21,1.17-.61,1.61l-18.57,20.57,11.72,5.5c.82.39,1.35,1.22,1.35,2.13v26.83h24.45c1.3,0,2.35,1.05,2.35,2.35v27.99c0,1.3-1.05,2.35-2.35,2.35s-2.35-1.05-2.35-2.35v-25.64h-24.45c-1.3,0-2.35-1.05-2.35-2.35v-27.69l-13.24-6.21c-.67-.32-1.16-.93-1.31-1.66-.15-.73.06-1.49.56-2.04l20.1-22.27c.09-3.33.86-14.76,6.87-26.64C41.36,18.97,55.4,3.26,85.42,1.35c.06,0,.12,0,.18,0,.58,0,14.42.24,28.46,7.6,13.07,6.85,28.65,21.37,28.65,51.62,0,31.87-25.66,46.3-32.16,49.45v36.3c0,1.3-1.05,2.35-2.35,2.35Z"/>
  <path class="st0" d="M85.05,80.92c-.58,0-1.17-.22-1.62-.65-3.04-2.89-29.68-28.56-29.68-39.66,0-8.9,7.43-16.42,16.23-16.42,8.06,0,12.69,3.25,15.07,5.79,2.39-2.53,7.02-5.79,15.07-5.79,8.77,0,16.46,7.85,16.46,16.79,0,10.31-24.91,34.54-29.91,39.29-.45.43-1.04.65-1.62.65ZM69.98,28.89c-6.14,0-11.53,5.48-11.53,11.72s15.68,24.07,26.61,34.7c11.01-10.7,26.83-28.21,26.83-34.33s-5.6-12.09-11.76-12.09c-9.81,0-12.84,5.8-12.96,6.05-.4.8-1.22,1.31-2.13,1.31-.9,0-1.72-.52-2.1-1.33-.11-.23-3.14-6.03-12.95-6.03Z"/>
  <path class="st0" d="M85.05,113.23c-1.3,0-2.35-1.05-2.35-2.35v-32.31c0-1.3,1.05-2.35,2.35-2.35s2.35,1.05,2.35,2.35v32.31c0,1.3-1.05,2.35-2.35,2.35Z"/>
</svg>